<svg xmlns="http://www.w3.org/2000/svg" viewBox="0 0 400 400">
  <defs>
    <style>
      .brazil-cls-1 {
        fill: #545454;
      }

      .brazil-cls-2 {
        fill: #fff;
      }
    </style>
  </defs>
  <title>brazil</title>
  <g id="Layer_2" data-name="Layer 2">
    <g id="Layer_1-2" data-name="Layer 1">
      <g id="Layer_2-2" data-name="Layer 2">
        <g id="svg3220">
          <g id="layer1">
            <g id="g3176">
              <g id="rect62">
                <rect x="2" y="2" width="396" height="396" rx="32.52" ry="32.52"/>
                <path class="brazil-cls-1" d="M365.48,4A30.55,30.55,0,0,1,396,34.52v331A30.56,30.56,0,0,1,365.48,396h-331A30.56,30.56,0,0,1,4,365.48v-331A30.56,30.56,0,0,1,34.52,4h331m0-4h-331A34.51,34.51,0,0,0,0,34.5v331A34.51,34.51,0,0,0,34.52,400h331A34.51,34.51,0,0,0,400,365.48v-331A34.51,34.51,0,0,0,365.48,0Z"/>
              </g>
              <g id="text82">
                <g id="path2904">
                  <path class="brazil-cls-2" d="M128.62,294.51V145.29l-1.72,1.77a61.19,61.19,0,0,1-10.69,8.77,62.6,62.6,0,0,1-11.27,5.67V127.86a73.87,73.87,0,0,0,17.21-13.4A55.9,55.9,0,0,0,133,97.78h32V294.51Z"/>
                  <path class="brazil-cls-2" d="M164.05,98.78V293.51H129.61V142.83l-3.43,3.53A58.43,58.43,0,0,1,105.94,160V128.44a74.71,74.71,0,0,0,16.94-13.3,57,57,0,0,0,10.8-16.36h30.37m2-2h-33.7a54.41,54.41,0,0,1-10.93,17,73.11,73.11,0,0,1-17.48,13.51v35.65a63.6,63.6,0,0,0,12.81-6.26,61.56,61.56,0,0,0,10.86-8.92V295.51h38.44Z"/>
                </g>
              </g>
              <g id="text84">
                <g id="path2901">
                  <path class="brazil-cls-2" d="M247.65,298c-17.38,0-30-3.74-37.6-11.13s-11.4-19.75-11.4-36.75V231.59c0-10.51,2.31-19.25,6.86-26s11.3-11.35,20.13-13.87l3.35-1-3.35-1a35.11,35.11,0,0,1-19.17-13.07c-4.64-6.34-7-14.08-7-23V142.32c0-16.81,3.81-29.11,11.33-36.54s20-11.2,37.1-11.2,29.4,3.75,36.83,11.13,11.2,19.7,11.2,36.61v11.42c0,8.94-2.31,16.71-6.85,23.1a33.63,33.63,0,0,1-19,13l-3.4,1,3.39,1c8.73,2.52,15.48,7.21,20.06,13.94s6.93,15.48,6.93,25.9V250.2c0,16.82-3.93,29.13-11.67,36.61S264.94,298,247.65,298Zm.27-92.47c-4.48,0-7.64,1.86-9.39,5.52-1.66,3.46-2.47,9.91-2.47,19.72v19.08c0,10.37.81,17,2.48,20.29,1.75,3.46,4.91,5.22,9.38,5.22s7.52-2,9.27-5.81c1.65-3.65,2.46-10.09,2.46-19.71V230.76c0-10.28-.79-16.85-2.41-20.09-1.7-3.41-4.84-5.15-9.32-5.15Zm-.27-88.71a8.61,8.61,0,0,0-8.51,5.62c-1.51,3.5-2.24,10-2.24,19.89v10c0,10.56.74,17.23,2.25,20.42,1.62,3.38,4.57,5.09,8.77,5.09h0a8.49,8.49,0,0,0,8.45-5.55c1.46-3.46,2.16-10,2.16-20v-10c0-10.17-.73-16.75-2.24-20.11-1.61-3.55-4.52-5.37-8.64-5.37Z"/>
                  <path class="brazil-cls-2" d="M247.92,95.58h0c16.74,0,28.89,3.65,36.13,10.84s10.89,19.27,10.9,35.9v11.42c0,8.73-2.25,16.3-6.67,22.52a32.67,32.67,0,0,1-18.47,12.6l-6.8,1.89,6.78,2c8.5,2.45,15.07,7,19.51,13.55s6.76,15.11,6.76,25.33v18.52c0,16.54-3.82,28.61-11.37,35.89s-20,11-37,11-29.53-3.65-36.9-10.85-11.1-19.31-11.1-36v-18.6c0-10.31,2.25-18.86,6.69-25.41,4.3-6.34,10.69-10.81,19-13.3l.5.15.84-.74,2.75-2.41-3.51-1a34.17,34.17,0,0,1-18.65-12.7c-4.5-6.17-6.78-13.71-6.78-22.43V142.32c0-16.54,3.71-28.59,11-35.83s19.58-10.91,36.4-10.91m0,83.28h0a9.54,9.54,0,0,0,9.37-6.16c1.51-3.58,2.24-10.24,2.24-20.35v-10c0-10.31-.76-17-2.33-20.52a9.78,9.78,0,0,0-9.55-6,9.66,9.66,0,0,0-9.43,6.23c-1.56,3.62-2.32,10.26-2.32,20.28v10c0,10.71.77,17.53,2.35,20.85,1.23,2.58,3.91,5.66,9.67,5.66m0,97.49A10.46,10.46,0,0,0,258.1,270c1.72-3.78,2.55-10.36,2.55-20.11V230.76c0-10.44-.82-17.16-2.51-20.53-1.3-2.61-4.13-5.71-10.22-5.71-4.83,0-8.39,2.11-10.29,6.08-1.73,3.61-2.57,10.2-2.57,20.16v19.08c0,10.53.85,17.32,2.59,20.75,1.33,2.62,4.19,5.76,10.27,5.76m0-182.77q-26.17,0-37.81,11.49t-11.62,37.25v11.42q0,13.78,7.17,23.61a36,36,0,0,0,19.7,13.44h0q-13.65,3.9-20.68,14.27t-7,26.53v18.52q0,26,11.7,37.47T247.65,299q26.46,0,38.43-11.55t12-37.33V231.59q0-16-7.1-26.46t-20.61-14.34a34.51,34.51,0,0,0,19.56-13.37q7-9.88,7-23.68V142.32q0-25.89-11.49-37.32T247.92,93.58Zm0,83.28c-3.8,0-6.43-1.51-7.86-4.53s-2.16-9.67-2.16-20v-10q0-14.48,2.16-19.49a7.66,7.66,0,0,1,7.59-5q5.57,0,7.73,4.81t2.15,19.7v10q0,14.63-2.09,19.57a7.53,7.53,0,0,1-7.52,4.94Zm0,97.49q-6.12,0-8.49-4.67t-2.37-19.84V230.76h0q0-14.35,2.37-19.29t8.49-4.95q6.14,0,8.43,4.6t2.3,19.64v19.08q0,14.05-2.37,19.28t-8.36,5.23Z"/>
                </g>
              </g>
            </g>
          </g>
        </g>
      </g>
    </g>
  </g>
</svg>
