<?xml version="1.0" encoding="UTF-8"?>
<svg xmlns="http://www.w3.org/2000/svg" viewBox="0 0 20.98 32">
  <g>
    <path d="M1.91,32H19.08c1.39,0,1.91-.51,1.91-1.91V13.29c0-.16,0-.3-.02-.44-.03-.3-.04-.6-.32-.93-.03-.03-.32-.25-.32-.25-.16-.08-.26-.13-.44-.2l-8.46-3.54c-.44-.2-.62-.28-.94-.27h0c-.32,0-.5,.07-.94,.27L1.09,11.47c-.18,.07-.28,.13-.44,.2,0,0-.29,.21-.32,.25-.28,.34-.29,.63-.32,.93-.01,.14-.02,.28-.02,.44V30.09c0,1.39,.51,1.91,1.91,1.91Z" style="fill: #666; fill-rule: evenodd;"/>
    <path d="M19.08,0H1.91C.51,0,0,.51,0,1.91V18.71c0,.16,0,.3,.02,.44,.03,.3,.04,.6,.32,.93,.03,.03,.32,.25,.32,.25,.16,.08,.26,.13,.44,.2l8.46,3.54c.44,.2,.62,.28,.94,.27h0c.32,0,.5-.07,.94-.27l8.46-3.54c.18-.07,.28-.13,.44-.2,0,0,.29-.21,.32-.25,.28-.34,.29-.63,.32-.93,.01-.14,.02-.28,.02-.44V1.91c0-1.39-.51-1.91-1.91-1.91Z" style="fill: #fff; fill-rule: evenodd;"/>
    <path d="M17.93,16.89c-.12,1.12-1.78,.96-2.4,.36,.14-.17,.28-.34,.42-.5,.25,.2,.57,.34,.9,.34,.33,.03,.5-.3,.14-.42-.32-.12-.67-.14-.97-.32-.64-.37-.38-1.33,.3-1.49,.52-.13,1.12-.02,1.54,.32-.13,.18-.25,.36-.37,.53-.2-.14-.42-.25-.66-.27-.43-.08-.6,.33-.12,.43,.56,.15,1.32,.27,1.23,1.03Z" style="fill: #343434;"/>
    <path d="M15.22,17.67h-2.21v-2.82h2.23v.64h-1.49v.46h1.34v.6h-1.34v.48h1.51v.64h-.04Z" style="fill: #343434;"/>
    <path d="M12.4,17.67h-.71v-1.67c-.24,.38-.49,.75-.73,1.13h-.02c-.24-.37-.48-.75-.73-1.12v1.66h-.73v-2.82h.79c.23,.37,.46,.74,.68,1.11,.23-.37,.46-.74,.69-1.11h.79v2.82h-.04Z" style="fill: #343434;"/>
    <path d="M5.76,17.31c-1.02,.84-2.75,.37-2.7-1.09,.03-1.35,1.68-1.86,2.64-1.02-.15,.18-.3,.36-.44,.54-.51-.48-1.35-.31-1.42,.44-.08,.71,.66,1.13,1.25,.77v-.35h-.56v-.57h1.27v1.26l-.03,.02Z" style="fill: #343434;"/>
    <path d="M4.52,8.46h1.67v-1.29h-1.67v-2.64h1.74v-1.29H3.1V12.57h3.19v-1.29h-1.77v-2.81Z" style="fill: #343434;"/>
    <path d="M16.49,8.74v2.11c0,.37-.17,.55-.53,.55h-.27c-.37,0-.54-.17-.54-.55V4.96c0-.37,.17-.55,.54-.55h.24c.36,0,.53,.17,.53,.55v1.83h1.39v-1.91c0-1.16-.56-1.72-1.71-1.72h-.69c-1.15,0-1.73,.57-1.73,1.73v6.03c0,1.16,.57,1.73,1.73,1.73h.7c1.15,0,1.73-.57,1.73-1.73v-2.17h-1.39Z" style="fill: #343434;"/>
    <path d="M11.56,12.57h1.42V3.24h-1.42V12.57Z" style="fill: #343434;"/>
    <path d="M6.45,21.01H14.58l-4.15,1.37-3.98-1.37Z" style="fill: #343434; fill-rule: evenodd;"/>
    <path d="M9.2,3.24h-2.23V12.57h1.42v-3.39h.81c1.15,0,1.73-.57,1.73-1.73v-2.48c0-1.16-.57-1.73-1.73-1.73Zm.31,4.15c0,.37-.17,.55-.53,.55h-.58v-3.44h.58c.36,0,.53,.17,.53,.55v2.35Z" style="fill: #343434;"/>
    <path d="M7.98,14.83h-.71c-.4,.95-.8,1.89-1.2,2.84h.78c.07-.18,.14-.35,.21-.53h1.11c.07,.18,.14,.35,.21,.53h.79c-.4-.95-.8-1.89-1.2-2.84Zm-.08,1.71h-.61l.02-.03v-.04l.03-.04,.02-.03v-.04l.03-.03,.02-.04,.02-.04v-.03l.03-.03,.02-.04v-.04l.03-.03,.02-.04v-.03l.03-.03,.02-.04,.02-.03v-.03l.03-.04,.02-.04v-.04l.03-.03,.02,.03v.04l.03,.04,.02,.04v.03l.03,.03,.02,.04v.03l.03,.03,.02,.04v.03l.03,.04v.04l.03,.03,.02,.03v.04l.03,.04,.02,.03v.04l.03,.03,.02,.04v.04l.03,.03h-.04Z" style="fill: #343434;"/>
    <rect y="0" width="20.98" height="24.35" style="fill: none;"/>
    <path d="M6.31,25.89h2.46v.72h-.83v2.51h-.8v-2.51h-.83v-.72Z" style="fill: #fff;"/>
    <path d="M5.24,26.98h.72c0-.29,.03-.6-.52-.94-.43-.26-1.07-.13-1.31,0-.42,.24-.53,.55-.52,.9,.02,.57,.43,.7,.83,.84,.25,.09,.54,.15,.73,.32,.07,.07,.1,.19-.05,.25-.22,.09-.46,.09-.7-.06-.08-.05-.11-.14-.11-.23h-.77c0,.26,.05,.47,.22,.67,.24,.27,.57,.36,.93,.38,.45,.03,.72-.05,.93-.19,.22-.14,.36-.36,.4-.66,.03-.18,.05-.36-.16-.61-.19-.18-.5-.36-.9-.48-.19-.07-.48-.15-.53-.28-.05-.11,.03-.21,.1-.25,.11-.06,.27-.06,.41,0,.16,.06,.31,.18,.31,.34h0Z" style="fill: #fff;"/>
    <path d="M9.09,26.93v1.06c0,1.48,2.55,1.52,2.55,0v-1.06c0-1.44-2.55-1.34-2.55,0Zm1.27-.37c.25,0,.5,.17,.5,.47v.93c0,.6-1,.59-1,0v-.93c0-.32,.25-.48,.5-.47h0Z" style="fill: #fff;"/>
    <path d="M12.27,25.88v3.23h.78v-1.15h.31l.63,1.15h.8v-.29l-.58-.97c.82-.47,.62-1.96-.42-1.96h-1.52Zm.79,.69h.44c.51,0,.48,.69,0,.69h-.44v-.69Z" style="fill: #fff;"/>
    <path d="M15.32,25.87h2.05v.68h-1.28v.6h1.09v.68h-1.1v.6h1.33v.67h-2.1v-3.23Z" style="fill: #fff;"/>
  </g>
</svg>
