<?xml version="1.0" encoding="UTF-8"?>
<svg id="b" data-name="Layer 2" xmlns="http://www.w3.org/2000/svg" xmlns:xlink="http://www.w3.org/1999/xlink" viewBox="0 0 955.23 273.27">
  <defs>
    <clipPath id="d">
      <path d="m591.2,174.57c-.49-.48-1.21-1.09-1.58-1.7-6.31-10.54-12.49-21.2-18.8-31.86-1.82-3.03-3.52-6.06-5.34-9.09,0-.12.12-.24.12-.36l20.74-31.26c.12-.24.36-.36.61-.48,3.15-2.18,6.43-4.24,9.7-6.42.12-.12.24-.24.49-.36h-30.8c1.33,1.94,2.55,3.88,3.76,5.82-6.91,10.42-13.82,20.96-20.74,31.38h-.12v-31.26c1.94-2.06,3.76-4,5.7-5.94h-28.5c1.82,1.94,3.76,4,5.7,6.06v75.72l-5.7,5.69h28.74c-2.06-2.06-4-3.88-5.94-5.82v-17.93c0-.24.12-.61.24-.85,1.58-2.3,3.03-4.6,4.61-6.91.61-.85,1.21-1.7,1.82-2.67,6.79,11.39,13.46,22.78,20.13,34.16h21.83l-.12-.12-6.55-5.81Zm67.17-73.9v-1.21c-.12-2.06-1.09-3.76-2.91-4.85-2.06-1.21-4.12-1.58-6.43-1.58h-33.96c-1.33,0-2.67.12-4,.36-1.82.24-3.52.97-4.61,2.54-.85,1.33-1.21,2.79-1.21,4.36v73.9c0,1.82.85,3.15,2.18,4.24,2.06,1.57,4.24,2.18,6.79,2.18h34.8c1.33,0,2.67-.24,3.88-.36,1.33-.12,2.55-.73,3.52-1.57,1.46-1.33,2.06-3.03,2.06-4.97,0-12.24-.12-24.35-.12-36.59v-36.47Zm-17.22,69.42v.73h-.85c-4.37,0-8.61-.12-12.98,0-2.55,0-3.64-1.57-4-3.39-.12-.73-.12-1.45-.12-2.18,0-20.6-.12-41.31-.12-61.91v-.61h.85c4.37,0,8.61-.12,12.98-.12,2.67,0,3.64,1.58,4,3.76.12.73.24,1.57.24,2.3v61.42Zm98.2-71.24c1.94-1.94,3.76-3.88,5.7-5.82h-22.68c-.61,0-.97.24-1.09.85-.61,2.18-1.21,4.24-1.82,6.42-4.24,14.17-8.37,28.35-12.61,42.52-.24.97-.61,1.94-.85,2.91-.12-.24-.24-.36-.24-.48-2.91-9.33-5.82-18.54-8.61-27.86-2.43-7.75-4.73-15.75-7.15-23.62-.12-.61-.24-.73-1.09-.73h-21.71c2.06,2.06,3.88,4,5.7,5.82v76.08c-1.82,1.82-3.64,3.76-5.58,5.69h28.5c-2.06-2.06-3.4-4-5.34-5.94v-40.83l15.4,46.76,15.16-46.89h.12v40.83l-5.46,5.94h29.6c-2.06-2.06-4-3.88-5.94-5.82v-75.84Zm65.31-5.82h-49.12l4.86,5.94v75.84l-5.09,5.82h50.33c2.06-.12,3.88-.85,5.34-2.42,1.46-1.7,2.06-3.63,2.06-5.81v-35.5c0-1.7-.61-2.91-1.94-3.88-.85-.61-1.82-1.21-2.79-1.33.73-.48,1.58-.97,2.3-1.45,1.58-1.21,2.43-2.79,2.43-4.85v-25.32c0-.73-.12-1.45-.49-2.06-1.7-3.15-4.24-4.97-7.88-4.97Zm-26.8,9.69h14.92c1.33.24,2.06,1.21,2.06,2.67,0,1.09.12,2.18.12,3.27v17.08c0,1.94-1.09,3.27-3.03,3.27h-14.07v-26.29Zm17.34,64.82c0,1.45-.97,2.79-2.06,3.03-.36,0-.73.12-1.09.12-4.61,0-9.1.12-13.7.12-.12,0-.36-.12-.49-.12v-31.98h.36c4.61,0,8.97.12,13.58.12,2.06,0,3.4,1.33,3.4,3.39v25.32Zm69.97-67.48c-.12-.36-.24-.85-.36-1.21l5.46-5.82h-28.01c1.7,2.06,3.4,4,5.09,5.94,0,.12-.12.36-.12.48-2.18,7.39-4.24,14.66-6.43,22.05-4.97,17.2-10.07,34.16-15.04,51.37,0,.24-.24.48-.49.73-2.18,2.18-4.12,4.36-6.31,6.54-.12.12-.36.24-.49.36l26.92-.12-4.61-4.48s3.27-11.51,4.85-17.2h20.62c1.58,5.69,3.27,11.39,4.85,17.08-1.58,1.57-2.91,3.15-4.49,4.73h26.08l-6.8-6.92s-13.82-49.3-20.74-73.53Zm-16.74,49.07c2.55-8.97,4.97-17.93,7.52-26.77h.12c2.55,8.84,4.97,17.81,7.52,26.77h-15.16Zm99.52-54.64c-.24-1.09-.73-1.45-1.82-1.45h-55.54c-1.33,0-1.82.48-2.06,1.7-.85,3.03-1.58,6.06-2.43,9.09-.36,1.33-.73,2.42-1.09,3.88.12-.12.36-.24.36-.24l6.18-4.36c.24-.24.61-.36.97-.36h16.74v72.08c-1.94,1.94-3.76,3.76-5.58,5.69h29.23l.12-.12c-1.94-1.94-4-3.63-5.82-5.45v-72.21h16.98c.24,0,.48.12.73.24.12.08,6.55,4.72,6.55,4.72,0,0-2.26-8.72-3.52-13.21Zm-870.37,4.36c1.94-1.94,3.76-3.88,5.7-5.82h-22.68c-.61,0-.97.24-1.09.85-.61,2.18-1.21,4.24-1.82,6.42-4.24,14.17-8.37,28.35-12.61,42.53-.24.97-.61,1.94-.85,2.91-.12-.24-.24-.36-.24-.48-2.91-9.33-5.82-18.54-8.61-27.87-2.43-7.75-4.73-15.75-7.16-23.63-.12-.61-.24-.73-1.09-.73H5.44c2.06,2.06,3.88,4,5.7,5.82v76.09c-1.82,1.82-3.64,3.76-5.58,5.69h28.98c-2.06-2.06-3.88-4-5.82-5.94v-40.83c5.09,15.51,10.31,31.14,15.4,46.77,5.09-15.75,10.07-31.38,15.16-46.89h.12v40.83l-5.94,5.94h30.08c-2.06-2.06-4-3.88-5.94-5.82v-75.84Zm67.41,1.82v-1.21c-.12-2.06-1.09-3.76-2.91-4.85-2.06-1.21-4.12-1.58-6.43-1.58h-33.96c-1.33,0-2.67.12-4,.36-1.82.24-3.52.97-4.61,2.54-.85,1.33-1.21,2.79-1.21,4.36v73.9c0,1.82.85,3.15,2.18,4.24,2.06,1.58,4.24,2.18,6.79,2.18h34.81c1.33,0,2.67-.24,3.88-.36,1.33-.12,2.55-.73,3.52-1.57,1.46-1.33,2.06-3.03,2.06-4.97,0-12.24-.12-24.35-.12-36.59v-36.47Zm-17.22,69.42v.73h-.85c-4.37,0-8.61-.12-12.98,0-2.55,0-3.64-1.57-4-3.39-.12-.73-.12-1.45-.12-2.18,0-20.6-.12-41.31-.12-61.91v-.61h.85c4.37,0,8.61-.12,12.98-.12,2.67,0,3.64,1.58,4,3.76.12.73.24,1.58.24,2.3v61.43Zm89.6,3.51c-.24-.24-.61-.61-.73-.85-5.34-9.45-10.79-18.9-16.13-28.35-.12-.12-.12-.36-.24-.48,1.94-.12,3.64-.85,5.21-1.82,2.06-1.33,3.27-3.15,3.27-5.69v-35.98c0-3.88-1.82-6.3-5.58-7.03-1.21-.24-2.55-.36-3.76-.36h-45.84c1.94,1.94,3.76,3.88,5.7,5.82v76.09c-1.82,1.82-3.64,3.76-5.58,5.57h29.11l-5.82-5.82v-30.05h6.91c6.91,11.99,13.7,23.87,20.5,35.86h20.25c-.24-.24-.61-.36-.73-.48-2.18-2.18-4.37-4.24-6.55-6.42Zm-25.59-59.37v17.81c0,1.82-.73,2.67-2.55,2.67h-12.25v-31.99h11.28c.97,0,1.94.24,2.67.97.61.61.85,1.33.85,2.18v8.36Zm69-11.51h16.98c.24,0,.48.12.73.24.97.61,1.82,1.45,2.79,2.06,1.21.85,2.43,1.7,3.76,2.67,0-.24-.12-.36-.12-.48-.24-1.21-.73-2.3-.97-3.51-.85-3.03-1.58-6.18-2.43-9.21-.24-1.09-.73-1.45-1.82-1.45h-55.54c-1.33,0-1.82.48-2.06,1.7-.85,3.03-1.58,6.06-2.43,9.09-.36,1.33-.73,2.42-1.09,3.88.12-.12.36-.24.36-.24l6.19-4.36c.24-.24.61-.36.97-.36h16.74v72.09c-1.94,1.94-3.76,3.76-5.58,5.69h29.23l.12-.12c-1.94-1.94-4-3.63-5.82-5.45v-72.21Zm85.1,71.12c-.36-.36-.73-.73-.85-1.21-6.91-24.23-13.83-48.34-20.74-72.57-.12-.36-.24-.85-.36-1.21l5.46-5.82h-28.01c1.7,2.06,3.4,4,5.09,5.94,0,.12-.12.36-.12.48-2.18,7.39-4.24,14.66-6.43,22.05-4.97,17.2-10.07,34.17-15.04,51.37,0,.24-.24.48-.49.73-2.18,2.18-4.12,4.36-6.31,6.54-.12.12-.36.24-.49.36h26.8l.12-.12c-1.58-1.45-3.03-3.03-4.61-4.48,1.7-5.82,3.27-11.51,4.85-17.2h20.62c1.58,5.69,3.27,11.39,4.85,17.08-1.58,1.58-2.91,3.15-4.49,4.73h27.04c-.24-.24-.49-.36-.61-.48-2.18-2.06-4.12-4.12-6.31-6.18Zm-38.32-24.72c2.55-8.97,4.97-17.93,7.52-26.78h.12c2.55,8.84,4.97,17.81,7.52,26.78h-15.16Zm102.68,21.44c-.36.12-.73.12-1.09.12h-22.44v-71.6c1.94-2.18,3.88-4.12,5.7-6.06h-28.74c1.94,2.06,3.88,3.88,5.82,5.94v75.6c-1.94,2.06-3.88,3.88-5.82,5.94h.61c16.86,0,33.71.12,50.57.12.73,0,1.21-.36,1.46-1.09,2.06-4.6,4.12-9.09,6.19-13.57,0-.12.12-.24.12-.36-.24.12-.36.24-.49.24-4,1.58-7.88,3.15-11.89,4.73Z" style="fill: none; stroke-width: 0px;"/>
    </clipPath>
    <radialGradient id="e" cx="470.94" cy="-54.13" fx="470.94" fy="-54.13" r="553.91" gradientTransform="translate(5.05 182.06) scale(.99 .96)" gradientUnits="userSpaceOnUse">
      <stop offset="0" stop-color="#0eaddf"/>
      <stop offset="1" stop-color="#064a76"/>
    </radialGradient>
    <clipPath id="f">
      <polygon points="456.71 269.35 455.95 70.46 432.63 81.12 488.25 2.63 489.63 221.27 495.62 223.15 456.71 269.35" style="fill: none; stroke-width: 0px;"/>
    </clipPath>
    <radialGradient id="g" cx="470.94" cy="-54.13" fx="470.94" fy="-54.13" r="553.91" gradientTransform="translate(5.05 182.06) scale(.99 .96)" gradientUnits="userSpaceOnUse">
      <stop offset="0" stop-color="#0eaddf"/>
      <stop offset="1" stop-color="#064a76"/>
    </radialGradient>
  </defs>
  <g id="c" data-name="Layer 3">
    <g>
      <path d="m44.13,187.91l-2.15-6.59c-3.05-9.35-6.14-18.7-9.22-28.03-.6-1.81-1.19-3.62-1.79-5.42v25.89c.73.74,1.46,1.49,2.19,2.24.96.99,1.94,2,2.97,3.03l3.85,3.84H.12l3.85-3.84c.98-.98,1.93-1.96,2.86-2.92.69-.71,1.38-1.42,2.06-2.11v-74.23c-.67-.68-1.34-1.37-2.03-2.08-.96-.99-1.95-2.01-3.01-3.07l-3.85-3.84h27.14c.68,0,2.72,0,3.27,2.4,1.08,3.5,2.13,7.03,3.18,10.54,1.28,4.28,2.61,8.71,3.94,12.98,2.15,7.19,4.41,14.42,6.6,21.44,1.71-5.74,3.41-11.48,5.1-17.23,2.09-7.09,4.19-14.18,6.31-21.27.29-1.06.6-2.13.91-3.21.29-1.03.59-2.05.88-3.11.36-1.58,1.61-2.56,3.28-2.56h28.11l-3.85,3.84c-.96.96-1.89,1.92-2.83,2.88-.73.76-1.47,1.51-2.22,2.27v73.98c.73.72,1.46,1.42,2.19,2.14,1.01.98,2.03,1.97,3.09,3.02l3.85,3.84h-40.95l9.13-9.12v-26.1c-1.93,5.96-3.85,11.92-5.73,17.76-1.71,5.33-3.43,10.67-5.17,16.03l-2.13,6.59Zm661.77-.04l-13.17-39.99v25.89c.74.79,1.4,1.57,2.05,2.33.85,1,1.65,1.94,2.63,2.92l3.85,3.84h-39.38l3.85-3.84c.98-.98,1.93-1.96,2.86-2.92.69-.71,1.37-1.42,2.05-2.11v-74.23c-.67-.68-1.34-1.37-2.03-2.08-.96-.99-1.96-2.02-3.01-3.07l-3.85-3.84h27.14c.68,0,2.72,0,3.27,2.41,1.08,3.49,2.13,7.01,3.18,10.52,1.28,4.29,2.61,8.73,3.95,13,2.15,7.19,4.41,14.42,6.6,21.44,1.71-5.74,3.41-11.48,5.1-17.23,2.09-7.09,4.19-14.18,6.31-21.27.29-1.05.6-2.12.9-3.18.3-1.03.59-2.07.89-3.13.36-1.58,1.6-2.56,3.28-2.56h28.11l-3.85,3.84c-.96.96-1.9,1.92-2.83,2.89-.73.75-1.46,1.51-2.21,2.26v73.98c.73.72,1.46,1.43,2.21,2.15,1,.97,2.02,1.96,3.08,3.01l3.85,3.84h-40.16l8.34-9.06v-26.05l-13.01,40.24Zm-291.04-5c-8.43,0-16.86-.03-25.29-.06-8.43-.03-16.85-.06-25.28-.06h-43.96l3.85-3.84c.77-.76,1.47-1.53,2.18-2.29.45-.49.91-.98,1.39-1.48-.68-2.42-1.38-4.85-2.07-7.27-.66-2.31-1.33-4.61-1.97-6.92h-17.2c-1.31,4.69-3.25,11.53-4.04,14.32l7.3,7.49h-37.57l3.84-3.84c.22-.22.44-.36.58-.46,1.04-1.04,2.03-2.09,3.01-3.13,1.04-1.1,2.07-2.19,3.17-3.29,2.47-8.53,5-17.13,7.45-25.45,2.48-8.41,5.04-17.1,7.53-25.71,1.1-3.71,2.16-7.37,3.22-11.04.99-3.43,1.98-6.85,3-10.31-1.44-1.64-2.89-3.32-4.34-5.07l-3.03-3.68h37.98l-8.13,8.66c3.49,12.24,6.96,24.35,10.42,36.47,3.42,11.95,6.84,23.9,10.25,35.88.73,1,4.21,4.36,7.17,7.05l4.23,3.83,3.49-3.71c.99-1.05,1.97-2.03,2.96-3.02.75-.75,1.5-1.5,2.25-2.28v-73.8c-.75-.78-1.5-1.53-2.25-2.28-.99-.98-1.97-1.97-2.96-3.02l-3.57-3.79h39.15l-3.56,3.79c-.63.67-1.27,1.34-1.92,2.02-1.04,1.08-2.1,2.19-3.17,3.36v68.49h20.19c.13,0,.3,0,.38,0,1.96-.77,3.89-1.54,5.82-2.31,1.97-.79,3.95-1.58,5.95-2.37h.03c.09-.06.18-.11.28-.16l3.25-1.62v3.64c0,.3-.06.56-.12.76v.09l-.25.55c-2,4.34-4.06,8.83-6.09,13.36-.57,1.57-1.89,2.5-3.55,2.5Zm-67.78-11.19h0,0Zm-211.41,11.19h-34.81c-3.21,0-5.8-.84-8.16-2.64-2.05-1.68-3.07-3.69-3.07-6.03v-73.91c0-2.07.53-3.94,1.57-5.57,1.37-1.99,3.49-3.19,6.16-3.56,1.44-.26,2.91-.39,4.35-.39h33.96c3.02,0,5.35.58,7.57,1.88,2.43,1.46,3.85,3.82,4.02,6.65v.13s0,37.68,0,37.68c0,6.11.03,12.2.06,18.28.03,6.09.06,12.18.06,18.31,0,2.7-.94,4.93-2.79,6.63-1.45,1.27-3.1,2-4.83,2.16-.33.03-.69.08-1.06.13-.92.12-1.96.25-3.03.25Zm670.03,0h-54.97l7.42-8.88v-74.22l-7.36-8.99h53.88c4.27,0,7.67,2.11,9.84,6.11.51.88.77,1.94.77,3.17v25.32c0,2.4-.87,4.42-2.59,6.02,1.75,1.39,2.59,3.18,2.59,5.48v35.5c0,2.82-.88,5.27-2.6,7.28-1.83,1.98-4.14,3.04-6.91,3.2h-.07Zm-156.67,0h-34.8c-3.21,0-5.8-.84-8.16-2.64-2.05-1.68-3.07-3.69-3.07-6.03v-73.9c0-2.06.53-3.94,1.56-5.57,1.38-1.99,3.49-3.19,6.16-3.56,1.44-.26,2.91-.39,4.35-.39h33.96c3.01,0,5.35.58,7.57,1.88,2.43,1.46,3.85,3.81,4.02,6.65v.13s0,37.68,0,37.68c0,6.11.03,12.2.06,18.28.03,6.09.06,12.18.06,18.31,0,2.7-.94,4.93-2.79,6.63-1.45,1.27-3.11,2-4.83,2.16-.33.03-.69.08-1.06.12-.92.12-1.96.25-3.03.25Zm-377.02-.12h-39.94l3.56-3.79c1.64-1.75,3.27-3.38,4.97-5.09v-68.9h-14.23l-6.33,4.45-5.6,5.58,1.97-7.86c.23-.9.45-1.67.68-2.44.14-.48.28-.96.43-1.48.43-1.52.82-3.02,1.21-4.53.39-1.5.78-3,1.2-4.5.48-2.27,1.91-3.41,4.25-3.41h55.54c2.14,0,3.52,1.09,4,3.15.42,1.51.82,3.06,1.21,4.6.39,1.53.78,3.06,1.2,4.55l.04.17c.1.49.26.99.42,1.52.19.59.38,1.2.52,1.89.08.22.19.58.19,1.03v4.42l-3.57-2.6c-1.31-.95-2.5-1.78-3.68-2.61-.57-.36-1.07-.76-1.55-1.15-.36-.29-.7-.56-1.03-.78h-14.42v69.01l8.97,8.77Zm-41.91,0h-27l-.65-1.14c-6.33-11.18-12.83-22.55-19.84-34.72h-3.36v26.86l9.01,9h-40.24l4.16-3.89c1.26-1.18,2.5-2.45,3.7-3.67.39-.4.78-.8,1.17-1.19v-74.23c-.75-.76-1.48-1.51-2.22-2.27-.93-.96-1.86-1.92-2.83-2.88l-3.85-3.84h51.28c1.39,0,2.89.14,4.2.41,4.76.92,7.39,4.2,7.39,9.23v35.98c0,3.19-1.45,5.74-4.3,7.58-1.04.64-2.03,1.13-3,1.48,2.26,4,4.55,7.99,6.83,11.99,2.69,4.72,5.39,9.44,8.05,14.16.11.13.26.28.37.39h0c1.09,1.09,2.18,2.15,3.27,3.21,1.03,1,2.07,2.01,3.1,3.04.27.15.59.35.9.66l3.85,3.84Zm708.35,0h-39.94l3.56-3.79c1.65-1.75,3.27-3.39,4.97-5.09v-68.9h-14.23l-6.32,4.45-5.61,5.61,1.98-7.89c.23-.91.45-1.68.68-2.45.14-.48.28-.96.42-1.47.42-1.51.81-3.02,1.21-4.52.39-1.5.78-3.01,1.2-4.51.49-2.27,1.91-3.41,4.25-3.41h55.54c2.14,0,3.52,1.09,4,3.15,1.25,4.47,3.49,13.11,3.51,13.19l1.57,6.05-5.06-3.66c-2.19-1.59-5.42-3.92-6.29-4.54h-14.4v69.01l8.97,8.77Zm-40.36,0h-36.89l3.84-3.84c.77-.76,1.47-1.53,2.18-2.29.45-.49.91-.98,1.39-1.48-.68-2.43-1.38-4.85-2.08-7.28-.66-2.3-1.32-4.61-1.97-6.91h-17.2c-1.31,4.69-3.25,11.53-4.04,14.32l7.3,7.49h-37.57l3.84-3.84c.22-.22.44-.36.58-.46,1.04-1.04,2.02-2.08,3.01-3.13,1.04-1.1,2.08-2.2,3.17-3.29,2.47-8.54,5.01-17.15,7.46-25.48,2.47-8.4,5.03-17.08,7.52-25.67,1.09-3.7,2.15-7.37,3.21-11.03.99-3.43,1.99-6.86,3-10.31-1.43-1.63-2.89-3.32-4.34-5.07l-3.04-3.68h37.98l-8.13,8.66c3.44,12.07,6.88,24.22,10.33,36.38,3.44,12.15,6.88,24.3,10.32,36.37.73.93,3.75,4.12,6.33,6.74l3.77,3.83Zm-10.03-10.36s.02.06.03.09c0-.03-.02-.06-.03-.09Zm-284.72,10.36h-28.58l-.75-1.27c-5.95-10.15-12.07-20.62-18.23-30.96-.71,1.04-1.41,2.1-2.11,3.17-.72,1.09-1.44,2.18-2.18,3.27v16.79c.73.72,1.46,1.42,2.19,2.14,1.01.98,2.03,1.97,3.09,3.02l3.85,3.84h-39.61l8.88-8.88v-73.89l-.14-.15c-1.69-1.79-3.37-3.57-4.95-5.26l-3.56-3.79h39.13l-3.84,3.84c-1.71,1.71-3.33,3.43-5.04,5.24v23.07c2.12-3.21,4.24-6.42,6.36-9.64,3.19-4.84,6.38-9.67,9.57-14.48-.95-1.51-1.92-3.02-2.94-4.5l-2.43-3.53h44.65l-8.8,4.49c-1.24.83-2.48,1.64-3.72,2.44-2.06,1.35-4.01,2.62-5.95,3.96l-.16.11-19.98,30.12c.68,1.15,1.35,2.31,2.02,3.46.87,1.5,1.74,3,2.64,4.5,2.45,4.15,4.88,8.28,7.31,12.41,3.75,6.4,7.64,13.01,11.49,19.45.12.19.55.61.81.85.13.12.26.24.37.36l6.72,5.98,3.88,3.85ZM111.97,104.97c0,9.75.03,19.53.06,29.31.03,10.33.06,20.66.06,30.96,0,.65,0,1.27.09,1.81.25,1.26.82,1.51,1.78,1.51,2.88-.08,5.82-.05,8.65-.03.97,0,1.95.02,2.93.02v-59.9c0-.59-.12-1.39-.21-1.93-.3-1.79-.82-1.88-1.78-1.88-2.17,0-4.31.03-6.46.06-1.7.02-3.4.05-5.12.06Zm668.15,35.99v27.59c1.69,0,3.38-.03,5.06-.05,2.28-.03,4.57-.06,6.88-.06.04,0,.11-.02.18-.03.12-.02.28-.05.45-.06.07-.1.28-.41.28-.8v-25.32c0-.81-.33-1.14-1.15-1.14-2.31,0-4.57-.03-6.82-.06-1.62-.02-3.23-.04-4.87-.05Zm-154.79-35.99c0,9.75.03,19.53.06,29.31.03,10.33.06,20.66.06,30.96,0,.65,0,1.27.09,1.81.25,1.26.82,1.51,1.78,1.51,2.89-.08,5.82-.05,8.65-.03.97,0,1.95.02,2.93.02v-59.9c0-.59-.12-1.39-.21-1.93-.3-1.79-.82-1.88-1.78-1.88-2.17,0-4.31.03-6.46.06-1.7.02-3.4.05-5.12.06Zm-314.78,41.91h9.21c-.84-2.99-1.67-5.97-2.5-8.95-.69-2.49-1.39-5.01-2.1-7.54-.71,2.53-1.41,5.06-2.11,7.55-.83,2.98-1.66,5.96-2.5,8.95Zm540.87,0h9.21c-.84-2.99-1.67-5.98-2.5-8.96-.69-2.48-1.39-5.01-2.1-7.54-.71,2.53-1.41,5.06-2.1,7.54-.83,2.98-1.66,5.97-2.5,8.96Zm-672.17-14.42h10c.11,0,.21,0,.27-.01.01-.09.02-.22.02-.4v-26.17c0-.4-.1-.5-.19-.59-.21-.21-.57-.31-1.08-.31h-9.03v27.48Zm10.46-.05h0Zm590.4-5.65h11.82c.38,0,.78,0,.78-1.02v-17.08c0-.5-.03-1.01-.06-1.51-.03-.59-.06-1.17-.06-1.76,0-.28-.05-.39-.06-.42h-12.41v21.79Z" style="fill: #03305e; stroke-width: 0px;"/>
      <g style="clip-path: url(#d);">
        <rect x="-68.5" y="-50.02" width="1080" height="360" style="fill: url(#e); stroke: #000; stroke-miterlimit: 10;"/>
      </g>
      <path d="m486.62,1.47s-54.38,76.24-54.92,77.16c-.64,1.07-1.3,1.96-1.47,2.58-.32,1.16.08,2.45,1.54,2.45,1.81,0,22.19-10.1,22.19-10.1,0-.02.57,198.13.68,199.12.06.57.83.68,1.16.55s2.06-2.13,2.44-2.59l38.91-46.2c.72-.8.87-1.35.68-1.99-.19-.64-.97-1-1.61-1.2l-4.6-1.44-1.37-217.18c0-.87,0-2.27-1.16-2.56-1.33-.33-2.08.87-2.46,1.41Z" style="fill: #03305e; stroke-width: 0px;"/>
      <g style="clip-path: url(#f);">
        <rect x="-68.5" y="-50.02" width="1080" height="360" style="fill: url(#g); stroke: #000; stroke-miterlimit: 10;"/>
      </g>
    </g>
    <g id="h" data-name="TM">
      <polygon id="i" data-name="T" points="939.96 174.97 942.45 174.97 942.45 182.75 943.37 182.75 943.37 174.97 945.86 174.97 945.86 174.15 939.96 174.15 939.96 174.97" style="fill: #03305e; stroke-width: 0px;"/>
      <polygon id="j" data-name="M" points="951.18 180.25 948.38 174.15 947.46 174.15 947.46 182.75 948.38 182.75 948.38 176.22 950.77 181.4 951.55 181.4 953.91 176.22 953.91 182.75 954.83 182.75 954.83 174.15 953.91 174.15 951.18 180.25" style="fill: #03305e; stroke-width: 0px;"/>
    </g>
  </g>
</svg>