<svg xmlns="http://www.w3.org/2000/svg" viewBox="0 0 265.08 312.58">
  <defs>
    <style>
      .cls-1 {
        fill: #fff;
      }
    </style>
  </defs>
  <title>netherrealm</title>
  <g id="Layer_2" data-name="Layer 2">
    <g id="Layer_2-2" data-name="Layer 2">
      <g>
        <g>
          <path class="cls-1" d="M157,219.65c-3.58-7.7-6.29-16.28-11.13-22.7.16-1.57-.8-2-.45-3.78.72.27.17-.73.9-.45-.27-3.18.87-5.12.44-8.24-.52-3.61-2.5-7.61-4-10.23-2-3.56-4.23-7.92-6.23-11.13-1-1.51-1.44-3.35-2.23-4.66-.4-.69-1-.88-1.33-1.56a26.76,26.76,0,0,1-.9-3.35c-2.23-.32-2.66,2.08-3.11,3.56-.83,2.81-3.25,6.67-1.78,9.8a27.52,27.52,0,0,1-1.79,6c-1.4,2.37-2.09,1.63-1.77,6.67a4.06,4.06,0,0,1,.89,2.89c1.67,1.08,1.79,3.7,1.78,6.46a10.45,10.45,0,0,1,.4,2.22c1.93.42,4.35,1.76,5.78,5.67-.36-.11-2.95-1.46-5.6-.5a16,16,0,0,0,.31,2.62c.35.78-.41,2.61-1,5.13a8.84,8.84,0,0,1,4.58,4.09,9.44,9.44,0,0,0-5.16-.18,52.08,52.08,0,0,0-.22,5.46c-.13.51-.33,1.55-.49,2.72A9.09,9.09,0,0,1,129,219.9a10.57,10.57,0,0,0-4.38-.4,4.62,4.62,0,0,0,.27,1.78c-1.89,3.06.88,5.35,1.38,7.09a24.28,24.28,0,0,1,.54,4.83c1.45,1,3.81.89,5.49.78,2.05-.13,7.37,1.26,10.45,2,3.13-.24,6.28-.66,10.16-.74a7.45,7.45,0,0,0,2.26-.4,6.28,6.28,0,0,0,.44-3.62c.19-1.94-.61-4.89.89-5.57-.86.18-.28-1-.46-1.54A7.51,7.51,0,0,0,157,219.65Z"/>
          <path class="cls-1" d="M144.93,24.92c-.17,1.85-1.08,4.37-.74,6.43,2.95.54,6.26,1.74,7.33,2A24.1,24.1,0,0,0,153.34,29c-.75-.81-2.23-2.22-2.39-3.12a1.75,1.75,0,0,1,.84-1.72c.51,0,3.78.69,4.3.69.36-.73.71-1.49,1.06-2.25-.76-.18-1.53-.36-2.3-.52Q150,20.71,145,19.54A28.52,28.52,0,0,1,144.93,24.92Z"/>
          <path class="cls-1" d="M160,31.72l.47-.38c-.59-.06-1-.13-1-.13l-.48,1A2.61,2.61,0,0,0,160,31.72Z"/>
          <path class="cls-1" d="M166.32,25.81l.26-.27-.76-.25.83.19,0,0c-1.39-.53-2.84-1-4.31-1.47-.33.88-.65,1.77-1,2.64a25.75,25.75,0,0,1,2.46,1.69C164.64,27.56,165.46,26.73,166.32,25.81Z"/>
          <path class="cls-1" d="M153.39,75.66c-.07,1.71-1.5,2.07-1.33,4-2.15.67-1.67,4-3.57,4.89v4c-2.06,1.44-.89,4.37-.89,7.13,1,.43,1.45,1.37,2.23,2,.24,3.32,3.23,6,2.23,9.13a10.14,10.14,0,0,1,.88,4.68c.76.28.34,1.72.45,2.66,1.85,3,.57,9.7,5.78,8.68a9.06,9.06,0,0,0,1.35-5.78c1.81-1.82,5.25-2,4.44-6.46-.37-.22-.57-.61-.44-1.33.64,0,.1-1.22.89-1.13v-2.66a8.65,8.65,0,0,0-1.34-2A33,33,0,0,1,161.84,99c-.09-.33.14-.8,0-1.11-.76-1.79-2.74-3.37-2.21-5.57.6-2.58-.32-6.36,0-10.46-.53-.66-1.29-1.09-1.35-2.22-.72-.28-.16.72-.88.44.4-1.06-.63-.72-.89-1.12C157.36,77.66,155.69,75.29,153.39,75.66Z"/>
          <path class="cls-1" d="M87.31,233.72c.65-1.39,6.22-2.23,10-4.38,7.41-3.64,10-7.18,10.2-8.77.68-7.5-1.27-14.12-3.51-21.59-.85-2.56-.35-2.06-2.22-5.1-1.37-6.17,2.37-10.19-1.8-12.73-.54-4.3-2.23-7.43-2.23-12.24-.7-4.85-.06-11.77-.88-17.58a27.75,27.75,0,0,1-.89-6.68c-.1-.35-.71-.19-.45-.89.73-4.61.87-9.82,2.22-13.8-.9-.3-.7.48-1.33.45-6.08-.89-7.62,2.77-11.13,4.46.3,6.74-.59,14.67.44,20.68-.82.08-.56,2.54,0,2.68-1.59,1.7,1,4.87-.44,6.44,1,4.26.16,10.38.44,15.36a23,23,0,0,1,1.34,5.57c-.84-.33,0,1-.9.66.21,1.36-.44,3.57.46,4.24.84-.12.78-1.15,1.78-1.12-.36,2.53-.52,5.28-1.78,6.9.79,1.14-1.56,4.57,0,6.46-.09.34-.7.19-.46.88a2.49,2.49,0,0,0-.44,1.11,34.42,34.42,0,0,0-2.23,8c-.88-5.93-1.48-12.16-2.66-17.79,1.28-1.4-1.83-3.37-.67-5.35.85-.62,1.27.71,2.46.45,1.39-2.74-1.27-4.09-.9-7.13.76-.26,1-1.07.9-2.22.7.26.17-.72.87-.45.17-14.24-.09-28.1-.43-41.84-.82,0-.73.9-1.13,1.34-3.64-.37-5.7-2.32-8.66-3.33v-1.35c-.7-.28-1.6-.33-1.79-1.11.2-.54.67-.81.44-1.79-.89.1-1.14-.48-1.77-.65-.31-.92.48-.72.45-1.36-1.22-2,1.32-3.78,2.21-5.1.25-1.24-.66-3.64.9-3.58,1.1,3.89,6.86.35,9.78,0-.32-1.06.56-.92,1.35-.87a28.71,28.71,0,0,0,5.78-14.7,1.05,1.05,0,0,1-.89-1.33h1.78c.6-2.38,0-3.79-.22-5.33.87-.22.56.76,1.56.43.25-1.07.45-2.21,1.33-2.67-.2-.83-.94-1.14-.88-2.22,1.2-.32,1.07.71,1.78.9a11.52,11.52,0,0,1,4-3.57c.59-4.22-1.27-8.13,0-11.57a2.43,2.43,0,0,0-3.1-.45,1.08,1.08,0,0,1-.89,1.34c1.32-4.3,5.36-5.92,5.34-11.58C98.65,69.56,99.14,67,99.08,65c.73.27.18-.71.9-.44-1-3.88.16-7.72,2.67-9.35-.83-6.76,5.8-6.07,8-9.81,0,0,5.94-5.45,10.11-9.17s2.37-5.06,2.37-5.06a9.38,9.38,0,0,0-.4-2.82c-.33-1-.94-1.22-1.62-2.37,0-1.18.23-2.08.23-3.27-.31-.5-.44-1.19-.89-1.56a22.39,22.39,0,0,1,0-3.36c-1.69.07-3,.15-3.5.23-6.43.48-13.06,2.09-19,3.46A74.35,74.35,0,0,0,85.07,27a18.59,18.59,0,0,0-2,1.34h0c-.2.22-.39.45-.6.66l-.18.15a4.39,4.39,0,0,1-.76.66,13.83,13.83,0,0,1-1.36.89.77.77,0,0,1-.18.1c-.42.25-.86.5-1.31.72l-.27.18c-4.19,2.53-8.52,5.23-12.63,8.22l0,0h0s0,0,0,0c-.47.49-1,1-1.47,1.43l-.31.28c-.51.46-1.05.91-1.59,1.34l-3.26,2.36a1.38,1.38,0,0,1-.25.17c-.11.08-.22.18-.33.25A53.71,53.71,0,0,0,47.61,59C43,63,43.12,61.62,38,68.31c-5.08,5.17-11,19-14.1,26.24,3.43-10.5,3.06-14.45,7-19.9A120.72,120.72,0,0,0,20.86,91.11s-3.25,9.18-4.16,11.4c-2.08,6.21-6.7,15.85-8.56,31.28,4.63-14.51,8.49-16.69,8.35-15.43C12.1,131,7.45,148,8.76,165.57c.27,2.24.74,13.78,1.24,15.76.22,1.19.42,2.37.64,3.56,1.6,6.68,4,11.7,6.4,17.89-2.21-8.53-.15-17.82.64-16.75,1.59,3.44.62,11.06,3.15,11.37,1.43-.15,2.05,3,4.11,6.95,2.85,3.81,5.23,7.09,7.77,10.23,2.31-2.89,2.14-4.33,3.8-8.4.34-1.15.61-3,.69-2.75,0,0,0,0,.08.14,0-.07,0-.11,0-.08s.42,1.35.49,1.3c0,.31.45,3.22.47,3.5,1.33,3.18.73,5,2,8.09.06,0,.09,0,.14.08.43-.09.32,2.41,1.41,4.39.08.14.14.28.2.41.37.69.75,1.36,1.14,2,0-.05-.07-.1-.1-.16.14.25,2.28,3.84,2.15,3.64a77,77,0,0,0,6,8.23c6,2.28,9.33,2.36,16.05,2,4.47,0,6.9-1.63,12.94-1h2.24c1.51-.2,3.09-.09,4.35-.34A6.63,6.63,0,0,1,87.31,233.72Z"/>
          <path class="cls-1" d="M168,144.84c-.09,3.37,1.42,7.8,2.18,7.7,1.89-.3,2.68-4.46,2.83-5.66s0-2.07.16-4.29C172.93,143.65,169,145.79,168,144.84Z"/>
          <path class="cls-1" d="M167.47,132.86c.12.65,0,10.68,2.67,9.81,2.69-1.1,2.93-6.38,2.61-9.07C172.14,133.11,169.6,131.67,167.47,132.86Z"/>
          <path class="cls-1" d="M263.25,136.37c-.11-1.31-2.34-16.14-2.16-17.35,0-.79-.07-1.59-.1-2.4-.06-1.4-2.7-9-2.81-10.38,0,0-.31-3-.38-3.57.06.53-3.51-8.92-6.6-15.3a18.75,18.75,0,0,1-.89-1.8.08.08,0,0,1,0-.07c-.27-.59-.51-1.19-.71-1.77a.44.44,0,0,1,0-.1c-.26-.62-.5-1.24-.73-1.87a13.13,13.13,0,0,0-.91-1.73l-.52-.75h0c-1.21-1.2-4.44-4.41-5.37-6.46v-.93c-.79-.64-2.22-2.91-2.94-3.62a1.47,1.47,0,0,1-.4-.34c-.11-.1-.19-.24-.3-.35-1.68-1.77-4.32-4-5.36-6.48-5.16-3.37-6.15-6.11-10.65-10.47-.8-1.25-3.54-2.24-4.48-3.06l-.42-.38q-2-1.09-4.3-2.28a71.12,71.12,0,0,0-8.53-5.35c-13-6.77-24.95-11.07-34.68-12.92-1,.88-2.31,2.18-4.13,4.13a16.81,16.81,0,0,1-8.34,4.58c-.12.24-.23.47-.34.71.42.9,2.46,1.89,3.31,2.83,2.42,1.76,5.8,2.4,9.41,2.95-.31.91.48.7.45,1.34-.69.66-.41,2.27-.45,3.56l2.22,8a8,8,0,0,1,.44,3.55c.87-.19,1,.38,1.34.68.33,2.32-.72,3.28-.44,5.57-.31.59-1.68.09-1.77.88a14.71,14.71,0,0,1,4.44,4h1.33c.26-.28-.25,2.93-.43,2.21-.89-.34,0,.6-.58.54-.23-.22-.56-.07-.76-.31,0-.34.57-.16.44-.66-1.2.25-1.65-.28-2.45-.44-.35,0-.17.56-.66.44.9,4.58,1.64,9.33,2.67,13.8h1.77c.13,1.51,1.12,2.15.9,4,.57.54,1.91.31,2.22,1.12-.6.34-.65,1.27-1.77,1.11.32,2.41-.56,3.61-.45,5.78.54.48,1.52.56,1.76,1.34a2.09,2.09,0,0,1-2.21,1.33c.26,1.37-.77,1.45-.45,2.9.65.76,2.32.5,2.22,2-1.06-.19-1.13.64-2.22.44,0,.35,0,.78-.43.67v4c1.75,2.89-1.2,6.81,0,9.12.27.73-.73.19-.46.9.49.2.53.84.46,1.57-1.19.29-.85,2.11-.9,3.55.84.48,1.46,0,2.23-.22.16,1.49-1.11,1.56-1.79,2.23-.06,1.1-.06,2.14.46,2.67,1,.31,1.52-1,2.22-.22-.29,1.27-1.79,1.34-2.68,2,.07,1.55-.36,2.61-1.77,2.67.49,8,.31,18.7-5.13,22.25-3.67-.62-2.72-5.88-3.33-9.57-1-3.87-.16-9.63-.46-14.25-1-.66-2.54-.87-2.66-2.44-1.66.37-2.75-1.48-2.66-3.55-.29,0-.53-.07-.45-.46-1.09-.19-1.49.31-2.22.46.76,7.6,5.42,11.32,6.22,18.9-1.13.72,0,1.37,0,2.23,0,.61-.91,3.56-.89,4.45.07,2.48,1.61,3.88,1.34,6-.19,1.59-1.67,4.12-1.34,6.47s.31,5.16.89,8c.81.34.44,2,0,2.45a9.31,9.31,0,0,1,.45,3.79,27.36,27.36,0,0,1,6.24,15.58c.45,1,1.3,2.8.43,3.78v13.58c-1.44,1.46.85,2.58.46,4.45-.86-.32-.05,1-.89.67-.49,4.28,3.43,8.14.43,10.89a5,5,0,0,1,.46,2.68c.38.2,5.94,2.17,6.94,5.8a22.57,22.57,0,0,0,8.29-.12c2.83-.39,5.84-5.24,5.84-5.24,1.45-1.15,1-1.23,2.45-5.47,1.71-.19,1.08-2.59,1.16-2.61,1.31-2.6-.26-.24,1-2.91,0-.16.76-1.4,1.68-3.52.54-1.62.34-2.65.69-3.89.54,1.06,1.26,1.54,1.63-1,0-.5.81-1.27.81-2.21.23-1.45,1.16-.76,1.91,2.44,2.05,3.16-.41,4.86,3.14,6.44,0,1.25,1.62,2.45,2.93,3.1,1.69,3.41,2.38,5.64,4.48,3.88,1.13-1,2.21-.85,2.61-3.74,0-.15.43-1.53.43-1.69.68-1.93.46-2.94,1.93-4.58.44-.73.88-1.49,1.32-2.24.26-1.17,0-2.76.71-4.14,1.2-2.52,4.86-3.79,4.47-8.47v-.47c1.23-3.56,3.76-5.74,3.56-10.83,3.29-4.88,3-13.89,3.89-14.33s-.4,3.52,2.55,7.63c.68,2.17,1.06,7.93,1.9,8.46.44.29.72-3.47,2-4.44.56,1.61,1,5.4,2.62,9.27.74,1.8.37,4.24,1.26,5.93a29.64,29.64,0,0,1,2.77,6.3,143.42,143.42,0,0,0,7.78-21.62v0c.26-1.45.52-2.9.73-4.36.42-6.11-.86-14.17.85-21,1.94-.65,1,1.83,2.68,1.41,2.24-7.11,1.84-18.53,1.84-26.85C262.14,136.37,264,144.89,263.25,136.37Z"/>
        </g>
        <g>
          <path class="cls-1" d="M160,126c0,2,1.56,4.48,3.17,4.13,0,0,0-.08,0-.12-1.66.37-2.75-1.48-2.66-3.55-.29,0-.53-.07-.45-.46Z"/>
          <path class="cls-1" d="M165.49,145.68c.62,3.68.22,9.89,3.9,10.52l0,0c-3.42-.79-2.53-5.9-3.13-9.52-1-3.87-.16-9.63-.46-14.25-1-.62-2.33-.86-2.61-2.18a3.93,3.93,0,0,0,2.13,2.86C165.64,137.69,164.46,141.8,165.49,145.68Z"/>
          <path class="cls-1" d="M172.52,133.43c.1,1.11.2,2.27.29,3.45a17.36,17.36,0,0,0-.06-3.28Z"/>
          <path class="cls-1" d="M173,146.88c.17-1.21,0-2.07.16-4.29a1.13,1.13,0,0,1-.12.25c0,3.89-.64,7.33-2.71,8.95-.74.1-1.29-3-1.69-6.72a1,1,0,0,1-.65-.23c-.09,3.37,1.42,7.8,2.18,7.7C172.1,152.24,172.89,148.08,173,146.88Z"/>
          <path class="cls-1" d="M159,32.22a2.61,2.61,0,0,0,1-.5l.47-.38c-.59-.06-1-.13-1-.13Z"/>
          <path class="cls-1" d="M161.41,26.61c.19.14.44.3.71.47-.16-.32-.34-.65-.53-1C161.53,26.27,161.46,26.44,161.41,26.61Z"/>
          <path class="cls-1" d="M96.87,151.33a27.75,27.75,0,0,1-.89-6.68c-.1-.35-.71-.19-.45-.89.73-4.61.87-9.82,2.22-13.8a.78.78,0,0,0-.37-.06c-1.63,3.8-2.45,9.82-3.06,13.67-.25.68.35.53.44.89.19,2.33.34,5.41,1,7.28.83,5.8-.38,10.16.33,15,0,4.82,2.52,9.22,3.07,13.51a2.27,2.27,0,0,1,.8.64c-.58-4.17-2.2-7.28-2.2-12C97.05,164.06,97.69,157.14,96.87,151.33Z"/>
          <path class="cls-1" d="M100.22,181.32c1.93,3.52-1.15,13.4,3.84,18.2,1.22,10.55,2.8,15.91,2.36,20.83-3.27,7.22-10.48,8.13-15.46,11.52a36.36,36.36,0,0,0,6.35-2.53c7.41-3.64,10-7.18,10.2-8.77.68-7.5-1.27-14.12-3.51-21.59-.85-2.56-.35-2.06-2.22-5.1C100.44,187.84,104,183.86,100.22,181.32Z"/>
          <path class="cls-1" d="M134.25,158.46c-.4-.69-1-.88-1.33-1.56a26.76,26.76,0,0,1-.9-3.35,2.12,2.12,0,0,0-1.34.2,7.13,7.13,0,0,0,.36,1.13c.33.68.94.88,1.34,1.56.8,1.31,1.28,3.17,2.24,4.68,2,3.19,7.55,14.56,9.59,18.1,1.52,2.65,1.15,12,1,13.62-1.83-.16-1.36,2.63.17,5.17,3.51,5.85,7.87,16,10.36,21.38a5.88,5.88,0,0,1-.62,4.56c-.14,1.49-.17,1.25,0,1.72a7.14,7.14,0,0,0-.18,4.78c0,1.62.3,2.8,0,4.46l.16.2a5.94,5.94,0,0,0,.59-3.89c.19-1.94-.61-4.89.89-5.57-.86.18-.28-1-.46-1.54a7.51,7.51,0,0,0,.91-4.46c-3.58-7.7-6.29-16.28-11.13-22.7.16-1.57-.8-2-.45-3.78.72.27.17-.73.9-.45-.27-3.18.87-5.12.44-8.24-.52-3.61-2.5-7.61-4-10.23-2-3.56-4.23-7.92-6.23-11.13C135.52,161.61,135,159.77,134.25,158.46Z"/>
          <path class="cls-1" d="M160.45,38.88c2.27,1.65,5.4,2.32,8.76,2.85,0-.08,0-.17.08-.28a21.38,21.38,0,0,1-9.28-3.4,9,9,0,0,1-2.52-2.72h0c-.12.24-.23.47-.34.71C157.56,37,159.6,37.94,160.45,38.88Z"/>
          <path class="cls-1" d="M159,81.21c-.17,3.89.22,8.4-.34,10.77-.52,2.21,1.82,3.92,2.58,5.73.13.31-.26,1-.16,1.28a8.58,8.58,0,0,0,1.15,2.44,40.22,40.22,0,0,1,3,4.09c0,.89-.4.89-.4,1.76-.77-.09-.48.79-1.13.82-.12.71-.29,1.32.09,1.52.81,4.46-2.05,5.29-3.87,7.1a11.66,11.66,0,0,1-1.53,6.22,5.19,5.19,0,0,0,.83-.1,9.06,9.06,0,0,0,1.35-5.78c1.81-1.82,5.25-2,4.44-6.46-.37-.22-.57-.61-.44-1.33.64,0,.1-1.22.89-1.13v-2.66a8.65,8.65,0,0,0-1.34-2A33,33,0,0,1,161.84,99c-.09-.33.14-.8,0-1.11-.76-1.79-2.74-3.37-2.21-5.57.6-2.58-.32-6.36,0-10.46C159.43,81.65,159.21,81.43,159,81.21Z"/>
          <path class="cls-1" d="M168.28,140.55c-.31-4.13-.45-7.83-.45-7.86a2.92,2.92,0,0,0-.36.17A45.93,45.93,0,0,0,168.28,140.55Z"/>
          <path class="cls-1" d="M83.5,121.49c-.32-1.06.56-.92,1.35-.87a28.71,28.71,0,0,0,5.78-14.7,1.57,1.57,0,0,1-.44-.18c-.77,6-3.49,10.28-6.48,14.06-.77,0-1.67-.18-1.32.9-2.65.3-7,3.17-8.66.83C74.87,125.35,80.59,121.83,83.5,121.49Z"/>
          <path class="cls-1" d="M70.61,130.17c-1.22-2,1.32-3.78,2.21-5.1.24-1.24-.66-3.63.89-3.57a3,3,0,0,1-.4-.86c-1.91.32-1.73,2.48-1.27,4.06-.46,1.33-3.44,3-2,5.44-.23,0-1,.17-.43,1.14a2.62,2.62,0,0,1,.56.24C69.85,130.62,70.64,130.81,70.61,130.17Z"/>
          <path class="cls-1" d="M70.61,131.74a1.74,1.74,0,0,0-.41-.2Z"/>
          <path class="cls-1" d="M71.49,134c.2-.54.67-.81.44-1.79a1.37,1.37,0,0,1-.46,0c0,.7-.46,1-.63,1.43.09.34.39.52.77.65A1.11,1.11,0,0,1,71.49,134Z"/>
          <path class="cls-1" d="M80.84,195c1.28-1.4-1.83-3.37-.67-5.35.85-.62,1.27.71,2.46.45,1.39-2.74-1.27-4.09-.9-7.13.76-.26,1-1.07.9-2.22.7.26.17-.72.87-.45.07-5.71,0-11.34,0-16.94-.05-.22-.07-.44-.12-.64l.11-.16c0-1.13,0-2.26,0-3.38a4.27,4.27,0,0,1,0-2.24c0-.47,0-.93,0-1.4a2.93,2.93,0,0,1,0-1.41q-.12-7.87-.32-15.67c-.82,0-.73.9-1.13,1.34h0c.3,12.63.51,26.43.37,39.19-.72-.27-.38.58-1.1.32.1,1.15,0,2.55-.79,2.83-.37,3,2,5.06,1.26,6.63-1.19.26-2.52-1.71-3.36-1.09-1.15,2,2,3.93.67,5.33,1.19,5.66,2.65,13.83,4.13,19.67.07-.54.12-1.18.16-1.87C82.49,205.44,81.89,200,80.84,195Z"/>
          <path class="cls-1" d="M156.09,24.81c3.57-7.2,6.63-16.14,9.46-24.07a4.3,4.3,0,0,1,3.94.71,3.63,3.63,0,0,0-4.57-1.1c-2.83,7.93-6,17.12-9.57,24.31-.11,0-.38,0-.71-.07A14,14,0,0,0,156.09,24.81Z"/>
          <path class="cls-1" d="M163.47,28a3.91,3.91,0,0,1,.4.33c.77-.74,1.59-1.57,2.45-2.49.29-.31.57-.58.83-.81s.64-.68.94-1c1.18-1,3.55-1.53,6-1.77,9.27-.95,23.17,4,32.28,8.45,4.46.87,10,2.05,15.12.88a7.54,7.54,0,0,0,1.17-.59,12.28,12.28,0,0,1-3.84.47A58.55,58.55,0,0,1,206,30.17c-9.1-4.49-18.24-8.83-31.17-8.59a14.28,14.28,0,0,0-6.73,1.85C166.79,24.75,165.3,26.17,163.47,28Z"/>
          <path class="cls-1" d="M222.86,32.09a3.15,3.15,0,0,0,.5-1.34l-.11,0A4.5,4.5,0,0,1,222.86,32.09Z"/>
          <path class="cls-1" d="M151,32.77a30.13,30.13,0,0,0-6.84-2.1c0,.23,0,.46.07.68,2.95.54,6.26,1.74,7.33,2A24.1,24.1,0,0,0,153.34,29c-.75-.81-2.23-2.22-2.39-3.12a1.77,1.77,0,0,1,.76-1.65c-.38,0-.67-.08-.79-.08-2,1.57.28,3.26,1.56,4.79C152.28,28.9,152.06,32.3,151,32.77Z"/>
          <path class="cls-1" d="M95.68,80h0c1.66-3.3,4.77-5.15,4.75-10.12C98.65,69.56,99.14,67,99.08,65c.73.27.18-.71.9-.44-1-3.88.16-7.72,2.67-9.35-.83-6.76,5.8-6.07,8-9.81,0,0,5.94-5.45,10.11-9.17s2.37-5.06,2.37-5.06a9.38,9.38,0,0,0-.4-2.82c-.33-1-.94-1.22-1.62-2.37,0-1.18.23-2.08.23-3.27-.31-.5-.44-1.19-.89-1.56-.74-9.26,3.37-13.68,11.57-14a14.84,14.84,0,0,1,6,1.3,12.68,12.68,0,0,0-6.87-1.95c-8.2.32-12.48,5-11.74,14.26a7.21,7.21,0,0,1,1.13,1.77c0,1.19-.25,2.36-.25,3.55.6,1.15,1.21,1.12,1.63,2a7.52,7.52,0,0,1,.71,3.25s1.45,1-4,5.72c-4.25,3.62-8.78,7.82-8.78,7.82-2.2,3.72-9.17,3.6-8.21,10.06-2.51,1.64-3.6,5.38-2.57,9.24-.73-.27-.18.73-.9.46,0,2-.08,5,1.69,5.35,0,5.66-5.38,8.3-5.14,11.12C95.29,80.87,95.28,80.86,95.68,80Z"/>
          <path class="cls-1" d="M89.9,105.46a1.21,1.21,0,0,1-.16-.87h1.78c.6-2.38,0-3.79-.22-5.33.87-.22.56.76,1.56.43.25-1.07.45-2.21,1.33-2.67-.2-.83-.94-1.14-.88-2.22,1.2-.32,1.07.71,1.78.9a11.52,11.52,0,0,1,4-3.57c.59-4.22-1.27-8.13,0-11.57a2.71,2.71,0,0,0-.41-.36c-2.58,3.82-.18,7-.78,11.2A9.45,9.45,0,0,0,94.6,95c-.71-.2-.54-1-1.64-.35,0,.86.65,1.36.86,2.2a2.88,2.88,0,0,0-1.64,2.12c-1,.31-.5-.62-1.37-.42a12.18,12.18,0,0,1,0,5.52c-.61,0-1,.14-1.66.14A1.18,1.18,0,0,0,89.9,105.46Z"/>
        </g>
        <path id="path3760" class="cls-1" d="M202.4,261h0a2,2,0,0,1,2-2v-.24H186.78a2.14,2.14,0,0,0-2,2.13h0v9.3h-.49l-2.63,3.16h3.12v9.48h0a2,2,0,0,1-2,2l0,.26h8.93v-.26a2,2,0,0,1-2-1.59l.6-10.16a16.43,16.43,0,0,0,2.71-.44,18.58,18.58,0,0,0,3.7-1.61l.74,12.05a4,4,0,0,1-2,2l12.76.17c-3.57-1.39-5.7-2.4-5.85-2.48Zm-11.88,9.15.38-6.28h5.41l.38,6.28Z"/>
        <path id="path3764" class="cls-1" d="M95.47,273.36H98v8.36s6.67,4.31,10.72,5.52c3.63-1.38,8.27-8.07,8.27-8.07s-3.89,3.39-7.3,3.19c-1.73-.11-4.35-1.82-6.56-3.49l.5-5.67a20.94,20.94,0,0,0,4.16-.53,20.92,20.92,0,0,0,5.18-2.5h-9.09l.58-6.39c2.54,0,5.35,0,7.23,0a14.4,14.4,0,0,1,6.91-5H96l0,.25a2,2,0,0,1,2,1.77v9.53Z"/>
        <path id="path3768" class="cls-1" d="M175.53,282.36c-1.72-.11-4.35-1.81-6.55-3.48l.5-5.68a23,23,0,0,0,4.17-.52,21,21,0,0,0,5.17-2.51l-9.08,0,.56-6.33h4.61l8.1-5.14-21.17.05V259a2,2,0,0,1,2,1.77v9.53l-2.55,3.06h2.55v8.34s6.68,4.32,10.72,5.53c3.63-1.38,8.26-8.07,8.26-8.07s-3.89,3.38-7.3,3.19"/>
        <path id="path3772" class="cls-1" d="M42.69,278.88l.51-5.68a21.86,21.86,0,0,0,4.16-.52,21,21,0,0,0,5.17-2.51l-9.07,0,.56-6.33h4.59l8.3-5.11-21.35,0V259a2,2,0,0,1,2,1.77v9.53L35,273.35s1,0,2.54,0v8.35s6.67,4.32,10.72,5.53c3.64-1.38,8.27-8.07,8.27-8.07s-3.89,3.38-7.3,3.19c-1.72-.11-4.36-1.81-6.56-3.48"/>
        <path id="path3776" class="cls-1" d="M147.75,274.37c6.94.08,12.36-2.89,15.08-7.79-2.71-4.85-7-8.12-12.88-8.12l-4.79-.08v0h0a2,2,0,0,1,2-2v-.25H130v.25a2,2,0,0,1,2,2l0,0-4.8.08c-5.88,0-10.17,3.27-12.88,8.12,2.73,4.9,8.15,7.87,15.09,7.79-13.63,17.7-28.65,21.83-28.65,21.83s12.43.64,25.32-11.63c2.15-2.06,5.28-5.37,7.12-7.57l.66,12,3.83,9.83-.36-40.46a2,2,0,0,1,1.22-1.85,2,2,0,0,1,1.21,1.85l-.32,40.48,3.79-9.85.66-12c1.85,2.2,5,5.51,7.13,7.57,12.88,12.27,25.31,11.63,25.31,11.63s-15-4.13-28.64-21.83m-26.9-7.91c1.76-2.78,5.54-5.09,11.48-5.34l.6,10.4c-7-.07-10.34-2.26-12.08-5.06m24-5.34c6,.25,9.73,2.56,11.49,5.34-1.74,2.8-5.05,5-12.08,5.06Z"/>
        <path id="path3780" class="cls-1" d="M66.43,283.06V262.25a21.78,21.78,0,0,0,6.5-3.51H59.42l-8,5.09a85.15,85.15,0,0,0,9.58-.34v19.35h0a2,2,0,0,1-2,2v.25h9.43v-.25a2,2,0,0,1-2-1.8"/>
        <path id="path3784" class="cls-1" d="M92.74,261h0a2,2,0,0,1,2-2v-.24H84.45V259a2,2,0,0,1,2,2l.56,9.14H80.86l.57-9.28a2,2,0,0,1,2-1.9v-.24H73.15V259a2,2,0,0,1,2,1.77v9.43l-2.8,3.16h2.8v9.48h0a2,2,0,0,1-2,2v.26H82v-.26a2,2,0,0,1-2-1.59l.61-10.14a16.56,16.56,0,0,0,3-.46,20.69,20.69,0,0,0,3.4-1.44l.71,11.88a4.23,4.23,0,0,1-2,2l12.74.17c-3.57-1.39-5.7-2.41-5.85-2.48Z"/>
        <path id="path3788" class="cls-1" d="M265.08,255.59s-7.69-2.73-11.44-1.71l-10.68,24-10.49-24c-3.75-1-11.44,1.71-11.44,1.71s5.13-.47,7.79,1.69a9.54,9.54,0,0,1,.8.78v28.31c-2.59,2.24-7.75,1.93-7.75,1.93s7.76,2.49,11.49,1.37a17.74,17.74,0,0,0,1.06-4.33l.91-15.17,7.4,17.64.17.6,8-18.72.77,19.17h0a2,2,0,0,1-2,2v.26h13.6v-.26c-1,0-5.61-.77-5.74-1.78V266.05c2.27-1.65,6.39-1.3,6.39-1.3a12.08,12.08,0,0,0-6.39-1.65v-6c2.71-2,7.61-1.56,7.61-1.56"/>
        <path id="path3792" class="cls-1" d="M227.29,279.49s-4.43,3.34-7.9,3.15c-1.75-.11-4.43-1.83-6.66-3.54l1.6-18.05h0c0-1.14,1.72-2.07,2.85-2.07l0-.24H205.48V259a2.06,2.06,0,0,1,2,1.82l0,21.56s7.3,3.27,11.46,5c3.7-1.39,8.28-7.83,8.28-7.83"/>
        <path id="path3796" class="cls-1" d="M32.39,286.38l-.11-.16V257.49h0c2.35-2.43,8.3-1.91,8.3-1.91s-6.69-2.41-11.1-2.23a14.83,14.83,0,0,0-3.71.48l1.5,24.61L11.43,253.88C7.67,252.86,0,255.59,0,255.59s5.13-.48,7.79,1.68a18.87,18.87,0,0,1,2,2.57v3.26a12.06,12.06,0,0,0-6.39,1.66s4.12-.37,6.39,1.31h0V289c-.11,1-4.7,1.94-5.74,1.94v.25H17.68v-.25a2,2,0,0,1-2-2h0l.73-18.64s11.9,19,12.28,19.44c3.72,1.12,11.48-1.37,11.48-1.37s-5.16.32-7.74-1.92"/>
        <path id="path3810" class="cls-1" d="M101.74,312.23c-.22-.1-.25-.17-.25-.45,0-.73,0-1.53.06-1.75s0-.34.15-.34.14.12.14.22a3,3,0,0,0,.11.68,1.85,1.85,0,0,0,1.9,1.35,1.64,1.64,0,0,0,1.8-1.52c0-.64-.21-1.26-1.31-2.13l-.61-.48c-1.47-1.14-2-2.06-2-3.15,0-1.46,1.23-2.51,3.07-2.51a6.08,6.08,0,0,1,1.77.23c.13,0,.19.06.19.16s-.06.55-.06,1.6c0,.29,0,.39-.14.39s-.13-.08-.13-.23a1.58,1.58,0,0,0-.35-.88,1.64,1.64,0,0,0-1.44-.66,1.41,1.41,0,0,0-1.59,1.38c0,.6.31,1.07,1.41,1.91l.37.28c1.62,1.21,2.18,2.13,2.18,3.38a2.68,2.68,0,0,1-1.24,2.32,3.85,3.85,0,0,1-2.12.55,4.72,4.72,0,0,1-1.93-.35"/>
        <path id="path3814" class="cls-1" d="M113.29,303.08l-2,0c-.75,0-1.08.11-1.27.4a1.63,1.63,0,0,0-.23.47c0,.1-.07.16-.15.16s-.12-.07-.12-.22.25-1.42.28-1.54.09-.24.17-.24a2.73,2.73,0,0,0,.57.16c.38,0,.88.07,1.32.07h5.27a5.65,5.65,0,0,0,.91-.07l.37-.06c.09,0,.1.07.1.28s0,1.19,0,1.54c0,.13,0,.21-.13.21s-.13-.07-.15-.28v-.14c0-.34-.39-.71-1.58-.74l-1.66,0v5.46c0,1.22,0,2.27.06,2.83,0,.37.13.68.51.73.19,0,.49,0,.69,0s.21,0,.21.1-.1.14-.24.14c-.87,0-1.73,0-2.09,0s-1.15,0-1.68,0c-.18,0-.26,0-.26-.14s0-.1.2-.1a2.61,2.61,0,0,0,.48,0c.28-.05.35-.36.39-.73.06-.56.06-1.61.06-2.83Z"/>
        <path id="path3818" class="cls-1" d="M121.73,306.2c0-2,0-2.39,0-2.83s-.13-.67-.58-.76a3.49,3.49,0,0,0-.51,0c-.15,0-.23,0-.23-.12s.1-.12.3-.12c.69,0,1.54,0,1.93,0s1.15,0,1.65,0c.18,0,.28,0,.28.12s-.08.12-.2.12a2.8,2.8,0,0,0-.4,0c-.36.08-.46.3-.48.76s0,.8,0,2.83v1.85c0,1.93.38,2.74,1,3.27a2.48,2.48,0,0,0,1.66.55,2.62,2.62,0,0,0,1.84-.72c.73-.73.77-1.93.77-3.29V306.2c0-2,0-2.39,0-2.83s-.13-.67-.56-.76a3.68,3.68,0,0,0-.49,0c-.14,0-.22,0-.22-.12s.09-.12.27-.12c.68,0,1.52,0,1.53,0,.16,0,1,0,1.52,0,.19,0,.28,0,.28.12s-.08.12-.24.12a2.66,2.66,0,0,0-.39,0c-.36.08-.45.3-.49.76s0,.8,0,2.83v1.41c0,1.49-.14,3.05-1.27,4a4,4,0,0,1-2.77,1,4.3,4.3,0,0,1-2.95-.92c-.67-.61-1.17-1.59-1.17-3.52Z"/>
        <path id="path3822" class="cls-1" d="M135,306.2c0-2,0-2.39,0-2.83s-.13-.67-.57-.76a3.74,3.74,0,0,0-.52,0c-.15,0-.23,0-.23-.12s.1-.12.29-.12c.71,0,1.54,0,1.92,0s1.25,0,2.05,0c1.66,0,3.88,0,5.34,1.51a4.78,4.78,0,0,1,1.28,3.38,5.21,5.21,0,0,1-1.45,3.7,6,6,0,0,1-4.45,1.58c-.48,0-1-.05-1.54-.08s-1-.09-1.3-.09c-.14,0-.43,0-.75,0l-.92,0c-.18,0-.27-.05-.27-.14s.06-.1.22-.1a2.59,2.59,0,0,0,.47,0c.28-.06.33-.35.38-.73a26.39,26.39,0,0,0,.08-2.83Zm1.66,1.46c0,1.4,0,2.43,0,2.69a2.82,2.82,0,0,0,.14,1c.17.24.69.52,1.75.52a3.68,3.68,0,0,0,4.17-4.27,4.48,4.48,0,0,0-1.28-3.31,5.29,5.29,0,0,0-3.78-1.34,3.21,3.21,0,0,0-.86.1.24.24,0,0,0-.15.26c0,.46,0,1.61,0,2.67Z"/>
        <path id="path3826" class="cls-1" d="M148.58,306.2c0-2,0-2.39,0-2.83s-.16-.68-.45-.74a1.94,1.94,0,0,0-.49-.05c-.12,0-.2,0-.2-.14s.1-.1.31-.1c.51,0,1.35,0,1.72,0s1.12,0,1.63,0c.18,0,.27,0,.27.1s-.06.14-.19.14a2.8,2.8,0,0,0-.4,0c-.37.08-.47.3-.5.76s0,.8,0,2.83v2.34c0,1.28,0,2.33.06,2.9,0,.37.13.6.53.66.19,0,.47,0,.68,0s.2,0,.2.1-.1.14-.25.14c-.88,0-1.71-.05-2.06-.05s-1.15.05-1.68.05c-.18,0-.27-.05-.27-.14s.06-.1.21-.1a2.85,2.85,0,0,0,.49,0c.26-.06.34-.29.38-.66.06-.57.06-1.62.06-2.9Z"/>
        <path id="path3830" class="cls-1" d="M154.33,307.37a5.14,5.14,0,0,1,5.5-5.22c3.31,0,5.38,1.92,5.38,5a5.26,5.26,0,0,1-5.51,5.45,5.08,5.08,0,0,1-5.37-5.21m9,.25c0-3-1.72-4.83-3.89-4.83-1.53,0-3.28.85-3.28,4.15,0,2.77,1.52,5,4.07,5,.94,0,3.1-.45,3.1-4.29"/>
        <path id="path3834" class="cls-1" d="M168.7,312.23c-.2-.1-.25-.17-.25-.45,0-.73.06-1.53.08-1.75s0-.34.15-.34.14.12.14.22a3,3,0,0,0,.11.68,1.84,1.84,0,0,0,1.9,1.35,1.63,1.63,0,0,0,1.8-1.52c0-.64-.21-1.26-1.33-2.13l-.59-.48c-1.47-1.14-2-2.06-2-3.15,0-1.46,1.22-2.51,3.07-2.51a6.06,6.06,0,0,1,1.76.23c.13,0,.19.06.19.16s-.06.55-.06,1.6c0,.29,0,.39-.14.39s-.13-.08-.13-.23a1.73,1.73,0,0,0-1.8-1.54,1.4,1.4,0,0,0-1.57,1.38c0,.6.3,1.07,1.39,1.91l.38.28c1.61,1.21,2.18,2.13,2.18,3.38a2.67,2.67,0,0,1-1.25,2.32,3.8,3.8,0,0,1-2.11.55,4.85,4.85,0,0,1-2-.35"/>
      </g>
    </g>
  </g>
</svg>
