<svg xmlns="http://www.w3.org/2000/svg" viewBox="0 0 715 154.57">
  <g id="Layer_2" data-name="Layer 2">
    <g id="TUBE">
      <g>
        <polygon points="699.18 114.41 696.08 114.41 696.08 113.35 703.46 113.35 703.46 114.41 700.43 114.41 700.43 123.66 699.18 123.66 699.18 114.41" style="fill: #fff"/>
        <polygon points="709.92 122.51 709.95 122.51 712.85 113.35 715 113.35 715 123.66 713.79 123.66 713.79 114.3 713.76 114.3 710.7 123.66 709.13 123.66 706.17 114.3 706.14 114.3 706.14 123.66 704.96 123.66 704.96 113.35 707.08 113.35 709.92 122.51" style="fill: #fff"/>
        <path d="M440.13,123.65a24.93,24.93,0,0,0,24.93-24.92V55.84a15,15,0,0,1,15-15h48.36a.66.66,0,0,0,.67-.66V31.57a.67.67,0,0,0-.67-.66H470.18a24.93,24.93,0,0,0-24.93,24.93V98.73a15,15,0,0,1-15,15H382.53a.67.67,0,0,0-.66.67V123a.66.66,0,0,0,.66.65Z" style="fill: #fff"/>
        <path d="M549.14,65.75V31.57a.66.66,0,0,1,.65-.66H681.5a.66.66,0,0,1,.65.66v8.58a.65.65,0,0,1-.65.66H569.6a.66.66,0,0,0-.66.66V63.74a7.13,7.13,0,0,0,7.13,7.13h83.31a26.39,26.39,0,1,1,0,52.78H549.79a.65.65,0,0,1-.65-.65v-8.59a.66.66,0,0,1,.65-.66h99.68a16.49,16.49,0,1,0-.13-33H564.16a15,15,0,0,1-15-15" style="fill: #fff"/>
        <path d="M353.52,70.86a15,15,0,0,0,0-30h-101a.66.66,0,0,1-.66-.66V31.57a.67.67,0,0,1,.66-.66h111a24.94,24.94,0,0,1,0,49.87H286.66a15,15,0,0,0-15,15V123a.65.65,0,0,1-.66.65H252.48a.66.66,0,0,1-.66-.65V95.79a24.93,24.93,0,0,1,24.93-24.93Z" style="fill: #fff"/>
        <path d="M74.86,0V144.22l32.66,10.35V33.64c0-5.7,2.54-9.48,6.61-8.18,5.33,1.48,6.36,6.73,6.36,12.36v48.3c20.33,9.84,36.34,0,36.34-26,0-26.52-9.39-38.34-37-47.84C108.94,8.69,88.77,2.57,74.86,0" style="fill: #fff"/>
        <path d="M113.73,133.48l52.44-18.66c5.94-2.2,6.84-5.19,2-6.76s-13.58-1.15-19.58,1l-34.9,12.31V101.73l2-.65A117.63,117.63,0,0,1,140.05,96c14.18-1.56,31.57.2,45.24,5.35,15.4,4.9,17.13,12,13.23,17S185,126.78,185,126.78l-71.26,25.59Z" style="fill: #fff"/>
        <path d="M15,131.5C-.76,127.1-3.4,117.8,3.81,112.43c6.64-4.9,18-8.59,18-8.59L68.55,87.16v19L34.91,118.2c-5.95,2.13-6.85,5.13-2,6.7s13.56,1.19,19.51-1l16.18-5.83V135l-3.26.54a104.75,104.75,0,0,1-50.26-4" style="fill: #fff"/>
        <path d="M187.45,139.11a7.73,7.73,0,1,1-7.76,7.73,7.48,7.48,0,0,1,7.76-7.73m0,14.32a6.57,6.57,0,1,0-6.52-6.59,6.35,6.35,0,0,0,6.52,6.59m-3.06-11.08h3.54c1.64,0,2.84.48,2.84,2.32a2.09,2.09,0,0,1-1.64,2.17v0c.58.15,1,.59,1.28,1.61s.62,2,.87,2.8h-1.64c-.22-.66-.51-1.8-.69-2.43-.25-1-.55-1.36-1.9-1.36H186v3.79h-1.61Zm1.61,4h1.42c1.13,0,1.82-.44,1.82-1.47,0-1.21-.84-1.4-1.71-1.4H186Z" style="fill: #fff"/>
      </g>
    </g>
  </g>
</svg>
