<svg xmlns="http://www.w3.org/2000/svg" viewBox="0 0 89.55 27.77" width="89.55" height="27.77">
  <g id="Layer_2" data-name="Layer 2">
    <g id="Layer_12" data-name="Layer 12">
      <g>
        <g>
          <path d="M13.71,0A13.8,13.8,0,0,0,0,12.77l7.37,3.08a3.88,3.88,0,0,1,2.2-.69h.21l3.28-4.8V10.3a5.19,5.19,0,1,1,5.19,5.24h-.12l-4.67,3.37v.18a3.89,3.89,0,0,1-7.71.78L.47,17.67a13.75,13.75,0,0,0,27-3.79A13.82,13.82,0,0,0,13.71,0" style="fill: #fff"/>
          <path d="M8.62,21.07l-1.69-.71A2.92,2.92,0,0,0,12.26,18a2.89,2.89,0,0,0-3.73-1.63l1.75.73a2.19,2.19,0,0,1,1.16,2.84,2.16,2.16,0,0,1-2.82,1.17" style="fill: #fff"/>
          <path d="M15.66,10.3a2.6,2.6,0,1,1,2.6,2.62,2.61,2.61,0,0,1-2.6-2.62m6.05,0a3.46,3.46,0,1,0-3.46,3.48,3.47,3.47,0,0,0,3.46-3.48" style="fill: #fff"/>
          <path d="M41.92,9.63,41,11.21a4.45,4.45,0,0,0-2.43-.77c-.93,0-1.51.38-1.51,1.08,0,.85,1,1.05,2.54,1.6s2.58,1.27,2.58,2.78c0,2.07-1.61,3.23-3.93,3.23a7.05,7.05,0,0,1-3.53-.94l.65-1.76a6,6,0,0,0,2.77.72C39.38,17.15,40,16.7,40,16s-.89-1-2.32-1.48c-1.63-.55-2.76-1.27-2.76-3,0-1.88,1.5-3,3.65-3a5.68,5.68,0,0,1,3.38,1" style="fill: #fff"/>
        </g>
        <polygon points="48.91 10.63 48.91 18.95 46.8 18.95 46.8 10.63 43.75 10.63 43.75 8.81 51.96 8.81 51.96 10.63 48.91 10.63" style="fill: #fff"/>
        <polygon points="56.39 10.63 56.39 12.91 60.42 12.91 60.42 14.73 56.39 14.73 56.39 17.11 61.07 17.11 61.07 18.95 54.29 18.95 54.29 8.81 61.07 8.81 61.07 10.63 56.39 10.63" style="fill: #fff"/>
        <path d="M67.71,11.23l-1.37,4.06h2.77ZM65.77,17l-.67,2H62.9L66.67,8.81h2.11L72.66,19H70.38l-.68-2Z" style="fill: #fff"/>
        <polygon points="83.47 12.73 80.72 18.66 79.53 18.66 76.82 12.78 76.82 18.95 74.8 18.95 74.8 8.81 76.81 8.81 80.19 16.13 83.45 8.81 85.48 8.81 85.48 18.95 83.47 18.95 83.47 12.73" style="fill: #fff"/>
        <path d="M87.92,10h.25a.23.23,0,0,0,.25-.23c0-.13-.07-.21-.25-.21h-.25Zm.26-.65c.36,0,.48.19.48.4a.4.4,0,0,1-.25.38l.33.61h-.27l-.27-.54h-.28v.54H87.7V9.37ZM87,10.09a1.16,1.16,0,1,0,2.32,0,1.16,1.16,0,1,0-2.32,0m2.55,0a1.39,1.39,0,1,1-2.78,0,1.39,1.39,0,1,1,2.78,0" style="fill: #fff"/>
      </g>
    </g>
  </g>
</svg>
