<svg xmlns="http://www.w3.org/2000/svg" viewBox="0 0 314.64 40">
  <path d="M20,16l.07,0c6,4.55,16.22,15.81,13.1,19a20,20,0,0,1-26.34,0c-3.12-3.18,7.12-14.44,13.1-19ZM30.42,2.93a20,20,0,0,0-20.84,0,.08.08,0,0,0,0,.1s.06,0,.09,0C13.52,2.22,19.4,5.57,20,5.9l0,0,0,0c.56-.33,6.44-3.68,10.32-2.84,0,0,.08,0,.09,0A.08.08,0,0,0,30.42,2.93ZM6,5.74l-.09.07A20,20,0,0,0,4.09,32.12a.09.09,0,0,0,.11,0,.09.09,0,0,0,0-.1C2.7,27.33,10.49,15.9,14.52,11.11a.08.08,0,0,0,0,0,.09.09,0,0,0,0-.07C8.41,4.92,6.34,5.57,6,5.74ZM25.49,11a.09.09,0,0,0,0,.07.08.08,0,0,0,0,0c4,4.79,11.82,16.22,10.3,20.94a.09.09,0,0,0,0,.1.09.09,0,0,0,.11,0A20,20,0,0,0,34.09,5.81L34,5.74C33.66,5.57,31.59,4.92,25.49,11ZM69.6,32.32H65.51l-7.05-9.7-7,9.7H47.33l9.09-12.51L48,8.28h4.09L58.46,17,64.8,8.28h4.09L60.51,19.81Zm21.24-6.84a6.35,6.35,0,0,1-2.08,5,8.76,8.76,0,0,1-6,1.83H71.52V21.61H66.17l2.23-3.06h3.12V8.28h10.8A8.23,8.23,0,0,1,87.92,10a5.83,5.83,0,0,1,2,4.54,5.62,5.62,0,0,1-3.12,5.21,6.4,6.4,0,0,1,3,2.26A5.93,5.93,0,0,1,90.84,25.48ZM75.2,18.55h6.89a4.57,4.57,0,0,0,3.13-.93,3.53,3.53,0,0,0,1-2.77,3.06,3.06,0,0,0-1.08-2.5,4.72,4.72,0,0,0-3.09-.9H75.2Zm11.94,6.87A3.54,3.54,0,0,0,86,22.56a5.28,5.28,0,0,0-3.42-.95H75.2v7.54h7.39a5.14,5.14,0,0,0,3.38-1A3.38,3.38,0,0,0,87.14,25.42Zm28.4-5.12a15.28,15.28,0,0,1-.8,5.07,11.38,11.38,0,0,1-2.41,4A10.63,10.63,0,0,1,108.58,32,13.54,13.54,0,0,1,99,32a10.44,10.44,0,0,1-3.72-2.61,11.49,11.49,0,0,1-2.43-4,15.1,15.1,0,0,1-.81-5.09,15.08,15.08,0,0,1,.81-5.08,11.75,11.75,0,0,1,2.43-4A10.26,10.26,0,0,1,99,8.6a13.69,13.69,0,0,1,9.55,0,10.55,10.55,0,0,1,3.75,2.58,11.68,11.68,0,0,1,2.41,4A15.34,15.34,0,0,1,115.54,20.3Zm-19.66,0A9.86,9.86,0,0,0,98.06,27a7.85,7.85,0,0,0,11.53,0h0a9.93,9.93,0,0,0,2.14-6.74,10.09,10.09,0,0,0-2.14-6.78,7.94,7.94,0,0,0-11.53,0A10.09,10.09,0,0,0,95.88,20.3Zm31.26-.49,8.37-11.53h-4.09L125.09,17l-6.33-8.71h-4.09l8.38,11.53L114,32.32h4.09l7-9.7,7,9.7h4.09Zm39.67-8.23v7h11.94v3.06H166.81V29h13.5v3.3H163.14v-24h17.17v3.3Zm-8.45,9.6a12.8,12.8,0,0,0-5.93-2.53l-2.08-.44a10.26,10.26,0,0,1-4.1-1.54,2.89,2.89,0,0,1-1.09-2.46,2.85,2.85,0,0,1,1.23-2.47,6.26,6.26,0,0,1,3.58-.87A7,7,0,0,1,154.34,12a4.54,4.54,0,0,1,1.52,3.39v0h3.64v0A7.16,7.16,0,0,0,157,9.77c-1.58-1.35-4-2-7.11-2a10,10,0,0,0-6.21,1.77,5.73,5.73,0,0,0-2.3,4.76,5.94,5.94,0,0,0,1.89,4.67,11.84,11.84,0,0,0,5.61,2.44l2.05.43a12.2,12.2,0,0,1,4.23,1.53,2.81,2.81,0,0,1,1.16,2.41A3.4,3.4,0,0,1,155,28.7a7,7,0,0,1-4.07,1,7.54,7.54,0,0,1-4.83-1.33,5.07,5.07,0,0,1-1.67-4v0h-3.67v0a7.82,7.82,0,0,0,2.69,6.33c1.76,1.43,4.25,2.16,7.41,2.16a11,11,0,0,0,6.87-1.93,6.34,6.34,0,0,0,2.49-5.28A5.8,5.8,0,0,0,158.36,21.18Zm44,8.17-.24-3.73a6,6,0,0,0-.88-3.2,4.36,4.36,0,0,0-2.47-1.68,5.61,5.61,0,0,0,2.89-2.09,6.24,6.24,0,0,0,1.07-3.7,6,6,0,0,0-2.22-4.9,9.52,9.52,0,0,0-6.06-1.77H184v24h3.67V22.46h6.94a4.09,4.09,0,0,1,3,.94,4.94,4.94,0,0,1,1,3.26l.1,2.56a5.68,5.68,0,0,0,.71,3.08v0h3.78l0,0A7,7,0,0,1,202.4,29.35Zm-14.75-17.9h6.63a5.55,5.55,0,0,1,3.5,1A3.47,3.47,0,0,1,199,15.28a3.89,3.89,0,0,1-1.19,3,4.69,4.69,0,0,1-3.26,1.07h-6.9Zm18.44,20.87h3.67v-24h-3.67Zm24.52-20.74V8.28H213.43v24h17.18V29h-13.5V21.61h11.94V18.55H217.11v-7Zm19.57,9.6a12.76,12.76,0,0,0-5.92-2.53l-2.09-.44a10.32,10.32,0,0,1-4.1-1.54A2.92,2.92,0,0,1,237,14.21a2.85,2.85,0,0,1,1.23-2.47,6.26,6.26,0,0,1,3.58-.87A7,7,0,0,1,246.16,12a4.54,4.54,0,0,1,1.52,3.39v0h3.64v0a7.18,7.18,0,0,0-2.45-5.58c-1.59-1.35-4-2-7.11-2a10,10,0,0,0-6.22,1.77,5.73,5.73,0,0,0-2.3,4.76,6,6,0,0,0,1.89,4.67,11.88,11.88,0,0,0,5.61,2.44l2,.43A12.2,12.2,0,0,1,247,23.34a2.82,2.82,0,0,1,1.17,2.41,3.41,3.41,0,0,1-1.42,2.95,6.91,6.91,0,0,1-4.07,1,7.54,7.54,0,0,1-4.83-1.33,5.1,5.1,0,0,1-1.67-4v0h-3.67v0a7.82,7.82,0,0,0,2.69,6.33c1.76,1.43,4.25,2.16,7.41,2.16a11,11,0,0,0,6.87-1.93A6.31,6.31,0,0,0,252,25.65,5.8,5.8,0,0,0,250.18,21.18Zm39.1-15.91h-1.83V35.32h1.83ZM272.47,19.81l8.37-11.53h-4.09L270.42,17l-6.33-8.71H260l8.38,11.53-9.1,12.51h4.1l7-9.7,7.05,9.7h4.09Zm40.36,1.37a12.8,12.8,0,0,0-5.93-2.53l-2.08-.44a10.26,10.26,0,0,1-4.1-1.54,2.9,2.9,0,0,1-1.1-2.46,2.86,2.86,0,0,1,1.24-2.47,6.26,6.26,0,0,1,3.58-.87A7,7,0,0,1,308.81,12a4.54,4.54,0,0,1,1.52,3.39v0H314v0a7.16,7.16,0,0,0-2.46-5.58c-1.58-1.35-4-2-7.11-2a10,10,0,0,0-6.21,1.77,5.74,5.74,0,0,0-2.31,4.76,6,6,0,0,0,1.9,4.67,11.84,11.84,0,0,0,5.61,2.44l2.05.43a12.2,12.2,0,0,1,4.23,1.53,2.81,2.81,0,0,1,1.16,2.41,3.4,3.4,0,0,1-1.41,2.95,7,7,0,0,1-4.07,1,7.54,7.54,0,0,1-4.83-1.33,5.07,5.07,0,0,1-1.67-4v0h-3.67v0a7.79,7.79,0,0,0,2.69,6.33c1.76,1.43,4.25,2.16,7.41,2.16a11,11,0,0,0,6.87-1.93,6.34,6.34,0,0,0,2.49-5.28A5.8,5.8,0,0,0,312.83,21.18Z" style="fill: #fff"/>
</svg>
